<?xml version="1.0" encoding="UTF-8"?>
<svg xmlns="http://www.w3.org/2000/svg" xmlns:xlink="http://www.w3.org/1999/xlink" width="308px" height="308px" viewBox="0 0 308 308" version="1.1">
<defs>
<clipPath id="clip1">
  <path d="M 108.03125 112.515625 L 199.707031 112.515625 L 199.707031 171.476562 L 108.03125 171.476562 Z M 108.03125 112.515625 "/>
</clipPath>
<clipPath id="clip2">
  <path d="M 108.03125 185.398438 L 199.707031 185.398438 L 199.707031 195.59375 L 108.03125 195.59375 Z M 108.03125 185.398438 "/>
</clipPath>
<clipPath id="clip3">
  <path d="M 112 86.894531 L 227 86.894531 L 227 221.214844 L 112 221.214844 Z M 112 86.894531 "/>
</clipPath>
<clipPath id="clip4">
  <path d="M 109 86.894531 L 230 86.894531 L 230 221.214844 L 109 221.214844 Z M 109 86.894531 "/>
</clipPath>
</defs>
<g id="surface1">
<rect x="0" y="0" width="308" height="308" style="fill:rgb(36.862745%,9.803922%,7.843137%);fill-opacity:1;stroke:none;"/>
<g clip-path="url(#clip1)" clip-rule="nonzero">
<path style=" stroke:none;fill-rule:nonzero;fill:rgb(100%,100%,100%);fill-opacity:1;" d="M 169.429688 117.539062 L 167.566406 117.433594 L 166.945312 117.433594 C 166.359375 119.230469 165.074219 120.890625 163.09375 122.425781 C 161.105469 123.964844 159.078125 124.734375 157.007812 124.734375 C 155.867188 124.734375 155.296875 124.285156 155.296875 123.386719 C 155.296875 122.109375 156.351562 120.652344 158.457031 119.007812 C 160.5625 117.371094 163.082031 116.414062 166.011719 116.140625 L 166.011719 115.933594 C 166.011719 114.171875 164.511719 113.292969 161.511719 113.292969 C 156.886719 113.292969 152.761719 116.019531 149.136719 121.472656 C 147.445312 124.058594 145.859375 126.71875 144.375 129.445312 C 139.75 138.105469 136.160156 144.09375 133.609375 147.40625 C 134.746094 147.40625 135.628906 147.421875 136.25 147.457031 L 144.738281 147.71875 C 146.84375 147.71875 148.078125 147.742188 148.445312 147.789062 C 148.804688 147.84375 148.984375 147.941406 148.984375 148.078125 C 148.984375 149.082031 148.15625 149.632812 146.496094 149.734375 C 141.941406 149.597656 137.09375 149.496094 131.953125 149.425781 C 126.257812 155.949219 119.578125 159.210938 111.917969 159.210938 C 110.746094 159.210938 109.804688 158.925781 109.09375 158.359375 C 108.386719 157.789062 108.035156 157.050781 108.035156 156.15625 C 108.035156 155.257812 108.457031 154.34375 109.300781 153.410156 C 110.148438 152.480469 111.425781 151.566406 113.128906 150.667969 C 114.839844 149.769531 117.265625 149.019531 120.40625 148.410156 C 123.546875 147.808594 127.171875 147.476562 131.277344 147.40625 C 134.003906 143.714844 137.023438 138.691406 140.335938 132.34375 C 141.546875 129.960938 142.976562 127.492188 144.632812 124.941406 C 146.289062 122.386719 147.90625 120.234375 149.480469 118.488281 C 151.046875 116.75 152.925781 115.320312 155.121094 114.195312 C 157.308594 113.074219 159.644531 112.515625 162.132812 112.515625 C 165.546875 112.515625 167.257812 113.636719 167.257812 115.882812 L 167.257812 116.035156 C 168.152344 116.035156 168.929688 116.105469 169.585938 116.242188 C 169.792969 116.3125 169.894531 116.542969 169.894531 116.9375 C 169.894531 117.335938 169.742188 117.539062 169.429688 117.539062 Z M 110.210938 153.878906 C 109.417969 154.601562 109.019531 155.300781 109.019531 155.980469 C 109.019531 156.648438 109.347656 157.191406 110.003906 157.605469 C 110.660156 158.019531 111.574219 158.226562 112.746094 158.226562 C 119.097656 158.226562 124.738281 155.292969 129.675781 149.425781 C 119.769531 149.527344 113.28125 151.011719 110.210938 153.878906 Z M 156.851562 123.078125 C 156.851562 123.628906 157.195312 123.90625 157.886719 123.90625 C 159.128906 123.90625 160.578125 123.214844 162.234375 121.835938 C 163.890625 120.453125 165.03125 119.023438 165.652344 117.539062 C 163.132812 117.847656 161.035156 118.613281 159.355469 119.835938 C 157.6875 121.066406 156.851562 122.144531 156.851562 123.078125 Z M 156.230469 149.527344 C 156.230469 149.148438 156.511719 148.511719 157.078125 147.613281 C 157.652344 146.714844 158.03125 146.148438 158.21875 145.90625 C 158.410156 145.664062 158.699219 145.285156 159.078125 144.765625 C 154.96875 148.492188 152.140625 150.355469 150.585938 150.355469 C 149.726562 150.355469 149.292969 149.996094 149.292969 149.269531 C 149.292969 148.234375 151.035156 145.320312 154.523438 140.523438 C 154.695312 140.246094 154.917969 140.109375 155.195312 140.109375 C 155.988281 140.347656 156.386719 140.523438 156.386719 140.625 C 156.386719 140.730469 156.28125 140.9375 156.074219 141.246094 C 153.105469 145.25 151.621094 147.5 151.621094 147.996094 C 151.621094 148.5 151.796875 148.753906 152.140625 148.753906 C 153.105469 148.753906 154.820312 147.636719 157.285156 145.410156 C 159.757812 143.1875 161.542969 141.351562 162.648438 139.902344 C 162.785156 139.660156 163.011719 139.539062 163.320312 139.539062 C 164.011719 139.675781 164.355469 139.8125 164.355469 139.953125 C 163.976562 140.503906 163.460938 141.230469 162.804688 142.125 C 162.148438 143.023438 161.613281 143.753906 161.199219 144.320312 C 160.785156 144.894531 160.355469 145.507812 159.90625 146.164062 C 159.042969 147.335938 158.523438 148.199219 158.351562 148.753906 C 158.351562 149.097656 158.636719 149.269531 159.203125 149.269531 C 159.773438 149.269531 160.785156 148.933594 162.234375 148.253906 C 163.683594 147.585938 164.960938 146.90625 166.066406 146.214844 L 167.722656 145.179688 C 167.757812 145.25 167.773438 145.386719 167.773438 145.59375 C 167.773438 145.800781 167.617188 145.972656 167.308594 146.113281 C 162.648438 149.289062 159.40625 150.875 157.574219 150.875 C 156.679688 150.875 156.230469 150.425781 156.230469 149.527344 Z M 166.117188 148.699219 C 167.671875 148.734375 168.757812 149.199219 169.378906 150.097656 C 172.621094 148.40625 175.503906 146.75 178.023438 145.128906 C 178.058594 145.230469 178.074219 145.386719 178.074219 145.59375 C 178.074219 145.800781 177.917969 145.972656 177.609375 146.113281 C 176.402344 146.941406 175.160156 147.734375 173.882812 148.492188 C 172.605469 149.253906 171.226562 150.046875 169.742188 150.875 C 169.84375 151.21875 169.894531 151.632812 169.894531 152.117188 C 169.894531 153.945312 169.09375 156.21875 167.484375 158.929688 C 165.882812 161.636719 164 163.980469 161.839844 165.96875 C 159.6875 167.949219 157.886719 168.941406 156.4375 168.941406 C 155.78125 168.941406 155.453125 168.421875 155.453125 167.386719 C 155.453125 166.351562 157.265625 162.332031 160.890625 155.328125 C 160.128906 155.601562 159.527344 155.742188 159.078125 155.742188 C 157.835938 155.742188 157.214844 155.378906 157.214844 154.652344 C 157.214844 153.789062 157.960938 152.738281 159.460938 151.496094 C 160.964844 150.253906 162.5625 149.40625 164.253906 148.960938 C 168.117188 141.953125 171.863281 135.9375 175.488281 130.914062 C 179.109375 125.894531 181.867188 123.386719 183.757812 123.386719 C 184.523438 123.386719 184.90625 123.765625 184.90625 124.527344 C 184.90625 125.664062 184.484375 127.027344 183.632812 128.617188 C 182.792969 130.203125 181.75 131.761719 180.507812 133.296875 C 179.265625 134.835938 177.875 136.414062 176.335938 138.035156 C 174.804688 139.660156 173.417969 141.046875 172.171875 142.199219 C 170.929688 143.359375 169.828125 144.375 168.859375 145.253906 C 167.894531 146.136719 167.394531 146.59375 167.359375 146.628906 C 167.1875 146.90625 166.953125 147.292969 166.65625 147.789062 C 166.367188 148.292969 166.1875 148.597656 166.117188 148.699219 Z M 157.617188 166.457031 C 157.617188 166.835938 157.742188 167.027344 157.988281 167.027344 C 158.949219 167.027344 160.269531 166.140625 161.945312 164.363281 C 163.621094 162.585938 165.125 160.503906 166.449219 158.121094 C 167.78125 155.742188 168.445312 153.773438 168.445312 152.21875 C 168.445312 151.945312 168.429688 151.738281 168.394531 151.597656 C 166.460938 152.703125 164.617188 153.671875 162.855469 154.5 C 159.363281 160.882812 157.617188 164.867188 157.617188 166.457031 Z M 183.042969 125.820312 C 183.042969 125.40625 182.855469 125.199219 182.476562 125.199219 C 181.820312 125.234375 180.144531 127.15625 177.453125 130.964844 C 174.761719 134.78125 171.8125 139.3125 168.601562 144.558594 C 170.742188 142.660156 173.070312 140.332031 175.589844 137.570312 C 180.558594 132.1875 183.042969 128.269531 183.042969 125.820312 Z M 160.683594 151.421875 C 159.785156 152.09375 159.335938 152.667969 159.335938 153.152344 C 159.335938 153.636719 159.785156 153.878906 160.683594 153.878906 C 160.820312 153.878906 161.164062 153.808594 161.71875 153.671875 L 163.734375 149.941406 C 162.597656 150.253906 161.578125 150.746094 160.683594 151.421875 Z M 163.734375 152.84375 C 164.597656 152.496094 166.066406 151.789062 168.136719 150.71875 C 167.6875 149.996094 166.875 149.632812 165.703125 149.632812 L 165.597656 149.632812 C 165.359375 150.046875 165.03125 150.617188 164.617188 151.339844 C 164.203125 152.066406 163.910156 152.566406 163.734375 152.84375 Z M 176.253906 148.699219 C 177.804688 148.734375 178.894531 149.199219 179.515625 150.097656 C 182.757812 148.40625 185.640625 146.75 188.160156 145.128906 C 188.195312 145.230469 188.210938 145.386719 188.210938 145.59375 C 188.210938 145.800781 188.054688 145.972656 187.746094 146.113281 C 186.535156 146.941406 185.292969 147.734375 184.019531 148.492188 C 182.742188 149.253906 181.359375 150.046875 179.875 150.875 C 179.980469 151.21875 180.03125 151.632812 180.03125 152.117188 C 180.03125 153.945312 179.230469 156.21875 177.628906 158.929688 C 176.023438 161.636719 174.140625 163.980469 171.988281 165.96875 C 169.828125 167.949219 168.023438 168.941406 166.574219 168.941406 C 165.917969 168.941406 165.589844 168.421875 165.589844 167.386719 C 165.589844 166.351562 167.402344 162.332031 171.023438 155.328125 C 170.265625 155.601562 169.660156 155.742188 169.210938 155.742188 C 167.96875 155.742188 167.347656 155.378906 167.347656 154.652344 C 167.347656 153.789062 168.101562 152.738281 169.605469 151.496094 C 171.105469 150.253906 172.699219 149.40625 174.390625 148.960938 C 178.253906 141.953125 182 135.9375 185.621094 130.914062 C 189.246094 125.894531 192.007812 123.386719 193.90625 123.386719 C 194.664062 123.386719 195.042969 123.765625 195.042969 124.527344 C 195.042969 125.664062 194.621094 127.027344 193.78125 128.617188 C 192.933594 130.203125 191.886719 131.761719 190.644531 133.296875 C 189.402344 134.835938 188.015625 136.414062 186.480469 138.035156 C 184.941406 139.660156 183.550781 141.046875 182.308594 142.199219 C 181.066406 143.359375 179.960938 144.375 178.996094 145.253906 C 178.03125 146.136719 177.53125 146.59375 177.496094 146.628906 C 177.324219 146.90625 177.089844 147.292969 176.800781 147.789062 C 176.503906 148.292969 176.320312 148.597656 176.253906 148.699219 Z M 167.761719 166.457031 C 167.761719 166.835938 167.882812 167.027344 168.125 167.027344 C 169.09375 167.027344 170.414062 166.140625 172.089844 164.363281 C 173.761719 162.585938 175.261719 160.503906 176.59375 158.121094 C 177.917969 155.742188 178.582031 153.773438 178.582031 152.21875 C 178.582031 151.945312 178.566406 151.738281 178.53125 151.597656 C 176.597656 152.703125 174.75 153.671875 172.992188 154.5 C 169.507812 160.882812 167.761719 164.867188 167.761719 166.457031 Z M 193.179688 125.820312 C 193.179688 125.40625 192.992188 125.199219 192.609375 125.199219 C 191.957031 125.234375 190.28125 127.15625 187.589844 130.964844 C 184.898438 134.78125 181.945312 139.3125 178.738281 144.558594 C 180.878906 142.660156 183.207031 140.332031 185.726562 137.570312 C 190.695312 132.1875 193.179688 128.269531 193.179688 125.820312 Z M 170.816406 151.421875 C 169.921875 152.09375 169.472656 152.667969 169.472656 153.152344 C 169.472656 153.636719 169.921875 153.878906 170.816406 153.878906 C 170.957031 153.878906 171.300781 153.808594 171.851562 153.671875 L 173.871094 149.941406 C 172.734375 150.253906 171.714844 150.746094 170.816406 151.421875 Z M 173.871094 152.84375 C 174.734375 152.496094 176.199219 151.789062 178.273438 150.71875 C 177.824219 149.996094 177.011719 149.632812 175.839844 149.632812 L 175.734375 149.632812 C 175.492188 150.046875 175.164062 150.617188 174.75 151.339844 C 174.335938 152.066406 174.042969 152.566406 173.871094 152.84375 Z M 199.703125 140.367188 C 199.703125 140.402344 199.316406 141.011719 198.542969 142.199219 C 197.761719 143.394531 197.160156 144.300781 196.730469 144.921875 C 196.296875 145.542969 194.492188 148.441406 191.316406 153.617188 C 191.59375 153.582031 192.042969 153.566406 192.664062 153.566406 C 194.320312 153.566406 195.148438 153.996094 195.148438 154.859375 C 195.148438 155.34375 194.835938 155.914062 194.214844 156.570312 C 193.59375 157.226562 193.109375 157.550781 192.765625 157.550781 C 192.421875 157.550781 192.25 157.433594 192.25 157.191406 C 192.25 157.050781 192.4375 156.839844 192.816406 156.546875 C 193.199219 156.25 193.386719 155.90625 193.386719 155.511719 C 193.386719 155.113281 193.050781 154.914062 192.382812 154.914062 C 191.707031 154.914062 191.058594 154.964844 190.4375 155.066406 C 187.296875 160.210938 184.585938 164.230469 182.308594 167.128906 C 180.03125 170.027344 178.082031 171.476562 176.460938 171.476562 C 175.285156 171.476562 174.699219 170.875 174.699219 169.664062 C 174.699219 167.59375 176.261719 164.722656 179.390625 161.050781 C 182.507812 157.375 185.898438 155.015625 189.558594 153.980469 L 194.527344 145.386719 C 193.078125 146.699219 191.585938 147.855469 190.054688 148.855469 C 188.515625 149.855469 187.347656 150.355469 186.554688 150.355469 C 185.761719 150.355469 185.363281 149.996094 185.363281 149.269531 C 185.363281 148.164062 187.175781 145.113281 190.800781 140.109375 C 190.972656 139.832031 191.195312 139.691406 191.472656 139.691406 C 192.265625 139.933594 192.664062 140.109375 192.664062 140.210938 C 192.664062 140.316406 192.558594 140.523438 192.351562 140.832031 C 189.246094 145.042969 187.691406 147.476562 187.691406 148.132812 C 187.691406 148.546875 187.929688 148.753906 188.398438 148.753906 C 188.859375 148.753906 189.824219 148.199219 191.296875 147.097656 C 192.757812 145.992188 194.007812 144.871094 195.042969 143.730469 L 197.941406 140.210938 C 198.148438 139.96875 198.410156 139.847656 198.71875 139.847656 C 199.375 139.953125 199.703125 140.125 199.703125 140.367188 Z M 179.722656 162.140625 C 178.71875 163.5 177.925781 164.792969 177.339844 166.023438 C 176.753906 167.242188 176.460938 168.210938 176.460938 168.921875 C 176.460938 169.625 176.734375 169.976562 177.289062 169.976562 C 179.015625 169.976562 182.792969 165.144531 188.625 155.480469 C 186.898438 156.035156 185.234375 156.941406 183.632812 158.203125 C 182.027344 159.460938 180.722656 160.773438 179.722656 162.140625 Z M 179.722656 162.140625 "/>
</g>
<g clip-path="url(#clip2)" clip-rule="nonzero">
<path style=" stroke:none;fill-rule:nonzero;fill:rgb(100%,100%,100%);fill-opacity:1;" d="M 114.054688 186.519531 L 113.601562 187.160156 C 113.546875 187.238281 113.492188 187.296875 113.4375 187.335938 C 113.382812 187.371094 113.316406 187.390625 113.238281 187.390625 C 113.160156 187.390625 113.078125 187.359375 112.996094 187.296875 C 112.914062 187.234375 112.816406 187.164062 112.699219 187.089844 C 112.585938 187.011719 112.453125 186.941406 112.296875 186.878906 C 112.140625 186.816406 111.953125 186.785156 111.734375 186.785156 C 111.519531 186.785156 111.332031 186.816406 111.164062 186.878906 C 111 186.941406 110.863281 187.027344 110.75 187.136719 C 110.636719 187.246094 110.554688 187.378906 110.496094 187.527344 C 110.441406 187.675781 110.414062 187.835938 110.414062 188.007812 C 110.414062 188.1875 110.457031 188.339844 110.550781 188.457031 C 110.640625 188.578125 110.761719 188.683594 110.910156 188.773438 C 111.0625 188.863281 111.230469 188.941406 111.425781 189.011719 C 111.617188 189.085938 111.8125 189.160156 112.007812 189.238281 C 112.207031 189.316406 112.402344 189.40625 112.59375 189.507812 C 112.789062 189.609375 112.957031 189.734375 113.105469 189.886719 C 113.257812 190.035156 113.375 190.210938 113.46875 190.421875 C 113.558594 190.632812 113.605469 190.886719 113.605469 191.183594 C 113.605469 191.601562 113.535156 191.992188 113.390625 192.363281 C 113.25 192.730469 113.042969 193.054688 112.773438 193.328125 C 112.503906 193.605469 112.179688 193.824219 111.796875 193.988281 C 111.414062 194.152344 110.984375 194.234375 110.507812 194.234375 C 110.257812 194.234375 110.015625 194.207031 109.777344 194.152344 C 109.539062 194.097656 109.3125 194.023438 109.101562 193.925781 C 108.886719 193.828125 108.691406 193.710938 108.511719 193.574219 C 108.332031 193.4375 108.175781 193.28125 108.042969 193.113281 L 108.582031 192.386719 C 108.625 192.332031 108.679688 192.285156 108.746094 192.25 C 108.816406 192.214844 108.882812 192.195312 108.945312 192.195312 C 109.011719 192.195312 109.070312 192.214844 109.132812 192.257812 C 109.195312 192.296875 109.261719 192.34375 109.332031 192.398438 C 109.40625 192.457031 109.484375 192.519531 109.566406 192.585938 C 109.652344 192.65625 109.75 192.71875 109.859375 192.777344 C 109.96875 192.832031 110.09375 192.878906 110.230469 192.917969 C 110.367188 192.957031 110.527344 192.976562 110.707031 192.976562 C 111.148438 192.976562 111.496094 192.851562 111.746094 192.601562 C 112 192.351562 112.125 192.003906 112.125 191.5625 C 112.125 191.367188 112.078125 191.203125 111.988281 191.078125 C 111.898438 190.953125 111.777344 190.847656 111.628906 190.761719 C 111.480469 190.675781 111.3125 190.601562 111.125 190.535156 C 110.933594 190.46875 110.742188 190.402344 110.542969 190.328125 C 110.347656 190.257812 110.152344 190.171875 109.964844 190.078125 C 109.777344 189.980469 109.609375 189.855469 109.460938 189.707031 C 109.3125 189.554688 109.191406 189.371094 109.101562 189.148438 C 109.011719 188.929688 108.964844 188.660156 108.964844 188.339844 C 108.964844 187.972656 109.035156 187.621094 109.167969 187.285156 C 109.304688 186.945312 109.496094 186.648438 109.746094 186.394531 C 110 186.136719 110.304688 185.929688 110.664062 185.777344 C 111.023438 185.621094 111.425781 185.546875 111.875 185.546875 C 112.109375 185.546875 112.332031 185.566406 112.542969 185.613281 C 112.757812 185.660156 112.957031 185.726562 113.140625 185.8125 C 113.324219 185.898438 113.496094 186.003906 113.652344 186.125 C 113.804688 186.242188 113.941406 186.375 114.054688 186.519531 Z M 116.621094 193.109375 C 116.867188 193.109375 117.085938 193.039062 117.28125 192.902344 C 117.476562 192.761719 117.644531 192.574219 117.785156 192.339844 C 117.925781 192.105469 118.03125 191.835938 118.105469 191.527344 C 118.179688 191.214844 118.21875 190.890625 118.21875 190.550781 C 118.21875 190.058594 118.136719 189.699219 117.96875 189.46875 C 117.800781 189.234375 117.546875 189.121094 117.210938 189.121094 C 116.96875 189.121094 116.75 189.1875 116.550781 189.328125 C 116.355469 189.464844 116.191406 189.648438 116.054688 189.886719 C 115.914062 190.121094 115.808594 190.394531 115.734375 190.703125 C 115.660156 191.011719 115.621094 191.339844 115.621094 191.683594 C 115.621094 192.175781 115.703125 192.535156 115.871094 192.765625 C 116.035156 192.992188 116.285156 193.109375 116.621094 193.109375 Z M 116.492188 194.226562 C 116.160156 194.226562 115.851562 194.171875 115.566406 194.058594 C 115.28125 193.945312 115.039062 193.78125 114.832031 193.566406 C 114.625 193.351562 114.464844 193.085938 114.347656 192.773438 C 114.230469 192.460938 114.171875 192.101562 114.171875 191.695312 C 114.171875 191.175781 114.253906 190.691406 114.421875 190.238281 C 114.585938 189.789062 114.8125 189.398438 115.101562 189.066406 C 115.390625 188.738281 115.726562 188.480469 116.113281 188.292969 C 116.496094 188.101562 116.90625 188.007812 117.339844 188.007812 C 117.675781 188.007812 117.984375 188.066406 118.265625 188.175781 C 118.550781 188.289062 118.796875 188.449219 119.007812 188.667969 C 119.214844 188.882812 119.375 189.148438 119.492188 189.460938 C 119.609375 189.773438 119.667969 190.132812 119.667969 190.539062 C 119.667969 191.054688 119.585938 191.539062 119.417969 191.988281 C 119.25 192.4375 119.019531 192.828125 118.734375 193.160156 C 118.445312 193.492188 118.109375 193.75 117.722656 193.941406 C 117.339844 194.132812 116.929688 194.226562 116.492188 194.226562 Z M 123.753906 189.191406 L 122.457031 189.191406 L 121.886719 193.890625 L 121.585938 194.996094 C 121.53125 195.191406 121.445312 195.335938 121.332031 195.441406 C 121.214844 195.542969 121.050781 195.59375 120.839844 195.59375 L 120.257812 195.59375 L 121.03125 189.191406 L 120.5625 189.109375 C 120.476562 189.09375 120.40625 189.058594 120.351562 189.011719 C 120.296875 188.960938 120.269531 188.894531 120.269531 188.800781 C 120.269531 188.796875 120.269531 188.789062 120.273438 188.777344 C 120.273438 188.765625 120.277344 188.742188 120.28125 188.699219 C 120.285156 188.660156 120.292969 188.59375 120.300781 188.511719 C 120.3125 188.425781 120.328125 188.308594 120.347656 188.15625 L 121.15625 188.15625 L 121.210938 187.707031 C 121.253906 187.363281 121.34375 187.050781 121.484375 186.777344 C 121.625 186.503906 121.800781 186.273438 122.011719 186.078125 C 122.226562 185.886719 122.472656 185.738281 122.753906 185.636719 C 123.03125 185.535156 123.332031 185.488281 123.652344 185.488281 C 123.902344 185.488281 124.132812 185.523438 124.347656 185.597656 L 124.21875 186.351562 C 124.207031 186.390625 124.191406 186.425781 124.160156 186.453125 C 124.132812 186.480469 124.097656 186.496094 124.054688 186.507812 C 124.007812 186.519531 123.960938 186.527344 123.90625 186.53125 C 123.855469 186.535156 123.800781 186.539062 123.746094 186.539062 C 123.589844 186.539062 123.445312 186.558594 123.316406 186.605469 C 123.183594 186.644531 123.066406 186.714844 122.964844 186.8125 C 122.867188 186.90625 122.785156 187.03125 122.71875 187.1875 C 122.65625 187.34375 122.609375 187.53125 122.582031 187.753906 L 122.535156 188.15625 L 123.886719 188.15625 Z M 124.523438 192.90625 C 124.523438 192.882812 124.523438 192.847656 124.523438 192.8125 C 124.523438 192.773438 124.523438 192.71875 124.53125 192.648438 C 124.539062 192.574219 124.546875 192.480469 124.5625 192.359375 C 124.574219 192.238281 124.59375 192.085938 124.617188 191.894531 L 124.953125 189.191406 L 124.378906 189.191406 C 124.316406 189.191406 124.261719 189.167969 124.21875 189.128906 C 124.179688 189.089844 124.15625 189.027344 124.15625 188.941406 C 124.15625 188.941406 124.160156 188.933594 124.160156 188.917969 C 124.164062 188.910156 124.164062 188.882812 124.167969 188.839844 C 124.171875 188.800781 124.179688 188.738281 124.191406 188.65625 C 124.199219 188.574219 124.210938 188.457031 124.226562 188.308594 L 125.144531 188.148438 L 125.628906 186.503906 C 125.652344 186.425781 125.691406 186.363281 125.75 186.320312 C 125.804688 186.277344 125.875 186.253906 125.957031 186.253906 L 126.734375 186.253906 L 126.5 188.15625 L 127.957031 188.15625 L 127.835938 189.191406 L 126.367188 189.191406 L 126.046875 191.820312 C 126.027344 191.980469 126.011719 192.109375 126 192.203125 C 125.992188 192.296875 125.984375 192.371094 125.976562 192.421875 C 125.972656 192.476562 125.96875 192.515625 125.964844 192.535156 C 125.964844 192.554688 125.964844 192.570312 125.964844 192.578125 C 125.964844 192.726562 126 192.84375 126.070312 192.929688 C 126.144531 193.015625 126.246094 193.0625 126.378906 193.0625 C 126.464844 193.0625 126.535156 193.050781 126.59375 193.03125 C 126.652344 193.007812 126.703125 192.984375 126.746094 192.960938 C 126.789062 192.9375 126.828125 192.914062 126.859375 192.894531 C 126.894531 192.871094 126.925781 192.859375 126.957031 192.859375 C 127 192.859375 127.035156 192.871094 127.058594 192.894531 C 127.085938 192.914062 127.109375 192.949219 127.128906 192.988281 L 127.4375 193.695312 C 127.222656 193.875 126.984375 194.007812 126.722656 194.097656 C 126.460938 194.1875 126.195312 194.234375 125.929688 194.234375 C 125.5 194.234375 125.164062 194.117188 124.914062 193.886719 C 124.664062 193.65625 124.535156 193.328125 124.523438 192.90625 Z M 129.304688 194.136719 L 128.28125 188.101562 L 129.378906 188.101562 C 129.484375 188.101562 129.566406 188.128906 129.632812 188.179688 C 129.699219 188.230469 129.738281 188.296875 129.746094 188.375 L 130.097656 191.597656 C 130.117188 191.773438 130.128906 191.941406 130.132812 192.109375 C 130.132812 192.273438 130.136719 192.4375 130.144531 192.601562 C 130.203125 192.4375 130.265625 192.273438 130.332031 192.109375 C 130.394531 191.941406 130.464844 191.773438 130.535156 191.597656 L 131.847656 188.363281 C 131.878906 188.285156 131.929688 188.21875 131.996094 188.167969 C 132.070312 188.117188 132.148438 188.089844 132.230469 188.089844 L 132.859375 188.089844 C 132.960938 188.089844 133.039062 188.117188 133.097656 188.167969 C 133.15625 188.21875 133.191406 188.285156 133.203125 188.363281 L 133.710938 191.597656 C 133.738281 191.773438 133.761719 191.941406 133.78125 192.109375 C 133.800781 192.273438 133.820312 192.4375 133.835938 192.601562 C 133.878906 192.4375 133.921875 192.273438 133.972656 192.109375 C 134.019531 191.941406 134.078125 191.773438 134.144531 191.597656 L 135.316406 188.375 C 135.34375 188.296875 135.390625 188.230469 135.464844 188.179688 C 135.535156 188.128906 135.613281 188.101562 135.703125 188.101562 L 136.761719 188.101562 L 134.273438 194.136719 L 133.152344 194.136719 C 133.03125 194.136719 132.957031 194.050781 132.929688 193.878906 L 132.351562 190.390625 C 132.328125 190.234375 132.3125 190.082031 132.296875 189.9375 C 132.273438 190.015625 132.242188 190.09375 132.214844 190.171875 C 132.1875 190.246094 132.160156 190.324219 132.128906 190.402344 L 130.695312 193.878906 C 130.621094 194.050781 130.515625 194.136719 130.378906 194.136719 Z M 142.234375 188.285156 L 141.503906 194.136719 L 140.738281 194.136719 C 140.5625 194.136719 140.441406 194.097656 140.367188 194.011719 C 140.296875 193.933594 140.261719 193.828125 140.261719 193.703125 L 140.308594 192.878906 C 140.042969 193.296875 139.742188 193.625 139.410156 193.867188 C 139.078125 194.105469 138.710938 194.226562 138.308594 194.226562 C 138.082031 194.226562 137.871094 194.183594 137.671875 194.089844 C 137.472656 194 137.300781 193.867188 137.15625 193.6875 C 137.007812 193.511719 136.890625 193.285156 136.804688 193.019531 C 136.722656 192.75 136.679688 192.433594 136.679688 192.074219 C 136.679688 191.710938 136.726562 191.359375 136.816406 191.019531 C 136.90625 190.679688 137.035156 190.359375 137.203125 190.058594 C 137.367188 189.757812 137.570312 189.484375 137.804688 189.230469 C 138.039062 188.980469 138.304688 188.765625 138.59375 188.585938 C 138.886719 188.40625 139.203125 188.265625 139.542969 188.164062 C 139.882812 188.0625 140.238281 188.011719 140.617188 188.011719 C 140.886719 188.011719 141.15625 188.03125 141.429688 188.074219 C 141.703125 188.113281 141.96875 188.183594 142.234375 188.285156 Z M 138.878906 193.039062 C 139.042969 193.039062 139.199219 192.984375 139.355469 192.871094 C 139.507812 192.761719 139.65625 192.609375 139.792969 192.417969 C 139.929688 192.222656 140.054688 191.996094 140.171875 191.730469 C 140.292969 191.46875 140.394531 191.1875 140.480469 190.882812 L 140.710938 189.0625 C 140.605469 189.050781 140.503906 189.042969 140.417969 189.042969 C 140.089844 189.042969 139.789062 189.117188 139.511719 189.269531 C 139.230469 189.417969 138.988281 189.617188 138.785156 189.871094 C 138.582031 190.121094 138.421875 190.417969 138.308594 190.753906 C 138.191406 191.089844 138.132812 191.441406 138.132812 191.8125 C 138.132812 192.238281 138.199219 192.546875 138.332031 192.742188 C 138.46875 192.941406 138.648438 193.039062 138.878906 193.039062 Z M 144.273438 194.136719 L 142.851562 194.136719 L 143.585938 188.097656 L 144.320312 188.097656 C 144.464844 188.097656 144.578125 188.128906 144.667969 188.191406 C 144.757812 188.253906 144.804688 188.351562 144.804688 188.492188 C 144.804688 188.492188 144.804688 188.5 144.804688 188.511719 C 144.804688 188.523438 144.800781 188.566406 144.796875 188.632812 C 144.792969 188.699219 144.789062 188.804688 144.785156 188.949219 C 144.78125 189.089844 144.773438 189.292969 144.761719 189.550781 C 145.011719 189.074219 145.28125 188.707031 145.574219 188.449219 C 145.867188 188.191406 146.175781 188.0625 146.492188 188.0625 C 146.652344 188.0625 146.816406 188.097656 146.980469 188.167969 L 146.714844 189.554688 C 146.519531 189.472656 146.332031 189.433594 146.15625 189.433594 C 145.808594 189.433594 145.5 189.597656 145.238281 189.929688 C 144.976562 190.265625 144.761719 190.785156 144.59375 191.496094 Z M 151.984375 189.503906 C 151.984375 189.773438 151.933594 190.019531 151.824219 190.242188 C 151.714844 190.46875 151.523438 190.667969 151.246094 190.84375 C 150.964844 191.019531 150.589844 191.171875 150.113281 191.300781 C 149.636719 191.425781 149.027344 191.527344 148.292969 191.601562 L 148.292969 191.679688 C 148.292969 192.628906 148.691406 193.101562 149.496094 193.101562 C 149.667969 193.101562 149.820312 193.085938 149.957031 193.054688 C 150.089844 193.019531 150.207031 192.976562 150.304688 192.929688 C 150.40625 192.882812 150.496094 192.832031 150.578125 192.773438 C 150.65625 192.714844 150.730469 192.660156 150.800781 192.613281 C 150.867188 192.566406 150.9375 192.527344 151.003906 192.492188 C 151.070312 192.460938 151.144531 192.445312 151.222656 192.445312 C 151.269531 192.445312 151.316406 192.457031 151.363281 192.476562 C 151.410156 192.496094 151.449219 192.53125 151.480469 192.574219 L 151.847656 193.019531 C 151.640625 193.226562 151.4375 193.40625 151.238281 193.5625 C 151.039062 193.714844 150.835938 193.839844 150.625 193.9375 C 150.417969 194.035156 150.199219 194.109375 149.96875 194.15625 C 149.734375 194.203125 149.484375 194.226562 149.210938 194.226562 C 148.855469 194.226562 148.535156 194.167969 148.25 194.046875 C 147.964844 193.925781 147.71875 193.757812 147.515625 193.539062 C 147.3125 193.324219 147.152344 193.058594 147.042969 192.753906 C 146.929688 192.445312 146.871094 192.101562 146.871094 191.71875 C 146.871094 191.402344 146.90625 191.089844 146.976562 190.785156 C 147.046875 190.480469 147.144531 190.1875 147.273438 189.914062 C 147.402344 189.640625 147.5625 189.386719 147.75 189.15625 C 147.9375 188.925781 148.152344 188.722656 148.386719 188.554688 C 148.625 188.386719 148.886719 188.253906 149.171875 188.160156 C 149.457031 188.066406 149.761719 188.019531 150.085938 188.019531 C 150.402344 188.019531 150.679688 188.066406 150.917969 188.15625 C 151.15625 188.246094 151.351562 188.363281 151.511719 188.503906 C 151.671875 188.648438 151.789062 188.808594 151.867188 188.984375 C 151.945312 189.160156 151.984375 189.332031 151.984375 189.503906 Z M 150.003906 189.03125 C 149.804688 189.03125 149.625 189.074219 149.457031 189.152344 C 149.285156 189.230469 149.132812 189.34375 149 189.492188 C 148.863281 189.636719 148.746094 189.808594 148.648438 190.011719 C 148.546875 190.214844 148.46875 190.433594 148.410156 190.671875 C 148.894531 190.605469 149.285156 190.535156 149.582031 190.457031 C 149.878906 190.378906 150.105469 190.292969 150.269531 190.195312 C 150.433594 190.101562 150.542969 190.003906 150.59375 189.894531 C 150.648438 189.789062 150.671875 189.675781 150.671875 189.554688 C 150.671875 189.496094 150.660156 189.4375 150.636719 189.375 C 150.609375 189.3125 150.570312 189.253906 150.515625 189.207031 C 150.464844 189.15625 150.394531 189.113281 150.3125 189.082031 C 150.226562 189.046875 150.125 189.03125 150.003906 189.03125 Z M 159.664062 185.632812 L 161.695312 194.136719 L 160.511719 194.136719 C 160.378906 194.136719 160.273438 194.105469 160.195312 194.042969 C 160.117188 193.980469 160.066406 193.898438 160.050781 193.789062 L 159.695312 192.011719 L 156.523438 192.011719 L 155.738281 193.789062 C 155.695312 193.882812 155.625 193.960938 155.523438 194.03125 C 155.425781 194.101562 155.316406 194.136719 155.195312 194.136719 L 153.996094 194.136719 L 158.109375 185.632812 Z M 158.296875 188.03125 L 157.003906 190.9375 L 159.476562 190.9375 L 158.902344 188.023438 C 158.871094 187.882812 158.839844 187.734375 158.808594 187.578125 C 158.777344 187.421875 158.746094 187.246094 158.71875 187.046875 C 158.644531 187.246094 158.570312 187.425781 158.5 187.59375 C 158.425781 187.761719 158.359375 187.90625 158.296875 188.03125 Z M 163.695312 194.136719 L 162.273438 194.136719 L 163.007812 188.097656 L 163.742188 188.097656 C 163.886719 188.097656 164 188.128906 164.089844 188.191406 C 164.179688 188.253906 164.226562 188.351562 164.226562 188.492188 C 164.226562 188.492188 164.226562 188.5 164.226562 188.511719 C 164.226562 188.523438 164.222656 188.566406 164.21875 188.632812 C 164.214844 188.699219 164.210938 188.804688 164.207031 188.949219 C 164.203125 189.089844 164.195312 189.292969 164.183594 189.550781 C 164.429688 189.074219 164.703125 188.707031 164.996094 188.449219 C 165.289062 188.191406 165.597656 188.0625 165.914062 188.0625 C 166.074219 188.0625 166.238281 188.097656 166.402344 188.167969 L 166.136719 189.554688 C 165.941406 189.472656 165.753906 189.433594 165.578125 189.433594 C 165.230469 189.433594 164.921875 189.597656 164.660156 189.929688 C 164.398438 190.265625 164.183594 190.785156 164.015625 191.496094 Z M 170.9375 193.066406 C 170.734375 193.289062 170.542969 193.472656 170.363281 193.621094 C 170.179688 193.769531 169.996094 193.890625 169.808594 193.976562 C 169.617188 194.070312 169.421875 194.132812 169.210938 194.171875 C 169.003906 194.207031 168.777344 194.226562 168.53125 194.226562 C 168.179688 194.226562 167.871094 194.167969 167.59375 194.046875 C 167.316406 193.925781 167.082031 193.757812 166.890625 193.539062 C 166.695312 193.320312 166.550781 193.054688 166.453125 192.742188 C 166.351562 192.433594 166.300781 192.089844 166.300781 191.707031 C 166.300781 191.21875 166.378906 190.75 166.535156 190.304688 C 166.695312 189.859375 166.914062 189.46875 167.195312 189.128906 C 167.476562 188.789062 167.8125 188.519531 168.199219 188.316406 C 168.589844 188.113281 169.011719 188.011719 169.472656 188.011719 C 169.871094 188.011719 170.210938 188.085938 170.492188 188.226562 C 170.773438 188.367188 171.023438 188.578125 171.242188 188.859375 L 170.777344 189.414062 C 170.742188 189.449219 170.703125 189.484375 170.65625 189.511719 C 170.609375 189.539062 170.5625 189.554688 170.507812 189.554688 C 170.441406 189.554688 170.378906 189.535156 170.324219 189.492188 C 170.269531 189.453125 170.207031 189.410156 170.132812 189.363281 C 170.0625 189.316406 169.96875 189.269531 169.863281 189.230469 C 169.753906 189.1875 169.613281 189.167969 169.441406 189.167969 C 169.21875 189.167969 169.003906 189.226562 168.800781 189.351562 C 168.597656 189.472656 168.417969 189.644531 168.265625 189.867188 C 168.109375 190.089844 167.984375 190.359375 167.890625 190.671875 C 167.800781 190.984375 167.753906 191.332031 167.753906 191.714844 C 167.753906 192.15625 167.851562 192.5 168.046875 192.742188 C 168.242188 192.980469 168.507812 193.101562 168.84375 193.101562 C 169.066406 193.101562 169.25 193.070312 169.398438 193.007812 C 169.546875 192.941406 169.671875 192.871094 169.773438 192.792969 C 169.875 192.71875 169.964844 192.648438 170.046875 192.582031 C 170.125 192.515625 170.210938 192.484375 170.304688 192.484375 C 170.351562 192.484375 170.398438 192.496094 170.445312 192.523438 C 170.492188 192.550781 170.53125 192.582031 170.566406 192.621094 Z M 172.9375 194.136719 L 171.484375 194.136719 L 172.546875 185.398438 L 173.996094 185.398438 L 173.542969 189.132812 C 173.835938 188.75 174.15625 188.46875 174.496094 188.285156 C 174.839844 188.101562 175.191406 188.007812 175.546875 188.007812 C 175.777344 188.007812 175.980469 188.046875 176.164062 188.128906 C 176.351562 188.207031 176.507812 188.328125 176.636719 188.480469 C 176.765625 188.636719 176.867188 188.828125 176.9375 189.054688 C 177.007812 189.277344 177.042969 189.539062 177.042969 189.832031 C 177.042969 189.90625 177.039062 189.984375 177.035156 190.058594 C 177.027344 190.136719 177.019531 190.214844 177.011719 190.296875 L 176.558594 194.136719 L 175.105469 194.136719 L 175.558594 190.296875 C 175.566406 190.226562 175.574219 190.160156 175.578125 190.097656 C 175.585938 190.035156 175.589844 189.976562 175.589844 189.917969 C 175.589844 189.660156 175.539062 189.476562 175.441406 189.363281 C 175.34375 189.246094 175.195312 189.191406 174.996094 189.191406 C 174.847656 189.191406 174.691406 189.230469 174.53125 189.316406 C 174.371094 189.402344 174.214844 189.523438 174.066406 189.675781 C 173.917969 189.832031 173.777344 190.019531 173.648438 190.238281 C 173.519531 190.457031 173.410156 190.703125 173.316406 190.972656 Z M 178.671875 188.101562 L 180.105469 188.101562 L 179.382812 194.136719 L 177.945312 194.136719 Z M 180.472656 186.34375 C 180.472656 186.46875 180.445312 186.585938 180.390625 186.695312 C 180.335938 186.804688 180.269531 186.902344 180.1875 186.984375 C 180.101562 187.066406 180.003906 187.132812 179.894531 187.183594 C 179.785156 187.230469 179.671875 187.253906 179.554688 187.253906 C 179.4375 187.253906 179.328125 187.230469 179.222656 187.183594 C 179.113281 187.132812 179.019531 187.066406 178.933594 186.984375 C 178.851562 186.902344 178.789062 186.804688 178.738281 186.695312 C 178.6875 186.585938 178.664062 186.46875 178.664062 186.34375 C 178.664062 186.21875 178.691406 186.097656 178.742188 185.984375 C 178.792969 185.871094 178.859375 185.773438 178.941406 185.6875 C 179.023438 185.605469 179.117188 185.539062 179.226562 185.488281 C 179.335938 185.4375 179.445312 185.414062 179.558594 185.414062 C 179.675781 185.414062 179.789062 185.4375 179.898438 185.488281 C 180.007812 185.539062 180.105469 185.601562 180.191406 185.683594 C 180.277344 185.765625 180.34375 185.863281 180.394531 185.976562 C 180.445312 186.09375 180.472656 186.214844 180.472656 186.34375 Z M 181.40625 192.90625 C 181.40625 192.882812 181.40625 192.847656 181.40625 192.8125 C 181.40625 192.773438 181.410156 192.71875 181.414062 192.648438 C 181.421875 192.574219 181.429688 192.480469 181.441406 192.359375 C 181.457031 192.238281 181.476562 192.085938 181.5 191.894531 L 181.835938 189.191406 L 181.265625 189.191406 C 181.199219 189.191406 181.144531 189.167969 181.101562 189.128906 C 181.0625 189.089844 181.039062 189.027344 181.039062 188.941406 C 181.039062 188.941406 181.042969 188.933594 181.042969 188.917969 C 181.046875 188.910156 181.050781 188.882812 181.050781 188.839844 C 181.058594 188.800781 181.0625 188.738281 181.074219 188.65625 C 181.082031 188.574219 181.09375 188.457031 181.109375 188.308594 L 182.027344 188.148438 L 182.511719 186.503906 C 182.535156 186.425781 182.574219 186.363281 182.632812 186.320312 C 182.6875 186.277344 182.757812 186.253906 182.839844 186.253906 L 183.617188 186.253906 L 183.382812 188.15625 L 184.839844 188.15625 L 184.71875 189.191406 L 183.253906 189.191406 L 182.929688 191.820312 C 182.910156 191.980469 182.894531 192.109375 182.886719 192.203125 C 182.875 192.296875 182.867188 192.371094 182.863281 192.421875 C 182.855469 192.476562 182.851562 192.515625 182.851562 192.535156 C 182.847656 192.554688 182.847656 192.570312 182.847656 192.578125 C 182.847656 192.726562 182.882812 192.84375 182.957031 192.929688 C 183.027344 193.015625 183.128906 193.0625 183.265625 193.0625 C 183.347656 193.0625 183.417969 193.050781 183.476562 193.03125 C 183.535156 193.007812 183.585938 192.984375 183.628906 192.960938 C 183.671875 192.9375 183.710938 192.914062 183.742188 192.894531 C 183.777344 192.871094 183.808594 192.859375 183.839844 192.859375 C 183.882812 192.859375 183.917969 192.871094 183.945312 192.894531 C 183.96875 192.914062 183.992188 192.949219 184.011719 192.988281 L 184.324219 193.695312 C 184.109375 193.875 183.867188 194.007812 183.605469 194.097656 C 183.34375 194.1875 183.078125 194.234375 182.8125 194.234375 C 182.382812 194.234375 182.046875 194.117188 181.796875 193.886719 C 181.546875 193.65625 181.417969 193.328125 181.40625 192.90625 Z M 190.113281 189.503906 C 190.113281 189.773438 190.058594 190.019531 189.949219 190.242188 C 189.839844 190.46875 189.648438 190.667969 189.371094 190.84375 C 189.089844 191.019531 188.714844 191.171875 188.238281 191.300781 C 187.761719 191.425781 187.15625 191.527344 186.417969 191.601562 L 186.417969 191.679688 C 186.417969 192.628906 186.820312 193.101562 187.621094 193.101562 C 187.792969 193.101562 187.949219 193.085938 188.082031 193.054688 C 188.214844 193.019531 188.332031 192.976562 188.429688 192.929688 C 188.53125 192.882812 188.621094 192.832031 188.703125 192.773438 C 188.78125 192.714844 188.855469 192.660156 188.925781 192.613281 C 188.996094 192.566406 189.0625 192.527344 189.128906 192.492188 C 189.195312 192.460938 189.269531 192.445312 189.347656 192.445312 C 189.394531 192.445312 189.441406 192.457031 189.488281 192.476562 C 189.535156 192.496094 189.574219 192.53125 189.605469 192.574219 L 189.976562 193.019531 C 189.769531 193.226562 189.5625 193.40625 189.363281 193.5625 C 189.164062 193.714844 188.960938 193.839844 188.75 193.9375 C 188.542969 194.035156 188.324219 194.109375 188.09375 194.15625 C 187.863281 194.203125 187.609375 194.226562 187.335938 194.226562 C 186.980469 194.226562 186.660156 194.167969 186.375 194.046875 C 186.089844 193.925781 185.84375 193.757812 185.640625 193.539062 C 185.4375 193.324219 185.277344 193.058594 185.167969 192.753906 C 185.054688 192.445312 185 192.101562 185 191.71875 C 185 191.402344 185.03125 191.089844 185.101562 190.785156 C 185.171875 190.480469 185.269531 190.1875 185.398438 189.914062 C 185.527344 189.640625 185.6875 189.386719 185.875 189.15625 C 186.0625 188.925781 186.277344 188.722656 186.511719 188.554688 C 186.75 188.386719 187.011719 188.253906 187.296875 188.160156 C 187.582031 188.066406 187.886719 188.019531 188.210938 188.019531 C 188.527344 188.019531 188.804688 188.066406 189.042969 188.15625 C 189.28125 188.246094 189.476562 188.363281 189.636719 188.503906 C 189.796875 188.648438 189.914062 188.808594 189.992188 188.984375 C 190.070312 189.160156 190.113281 189.332031 190.113281 189.503906 Z M 188.128906 189.03125 C 187.933594 189.03125 187.75 189.074219 187.582031 189.152344 C 187.414062 189.230469 187.261719 189.34375 187.125 189.492188 C 186.992188 189.636719 186.871094 189.808594 186.773438 190.011719 C 186.671875 190.214844 186.59375 190.433594 186.535156 190.671875 C 187.019531 190.605469 187.414062 190.535156 187.707031 190.457031 C 188.003906 190.378906 188.234375 190.292969 188.394531 190.195312 C 188.558594 190.101562 188.667969 190.003906 188.722656 189.894531 C 188.773438 189.789062 188.796875 189.675781 188.796875 189.554688 C 188.796875 189.496094 188.785156 189.4375 188.761719 189.375 C 188.734375 189.3125 188.695312 189.253906 188.644531 189.207031 C 188.589844 189.15625 188.523438 189.113281 188.4375 189.082031 C 188.355469 189.046875 188.25 189.03125 188.128906 189.03125 Z M 195.207031 193.066406 C 195.003906 193.289062 194.8125 193.472656 194.632812 193.621094 C 194.449219 193.769531 194.265625 193.890625 194.074219 193.976562 C 193.886719 194.070312 193.691406 194.132812 193.480469 194.171875 C 193.273438 194.207031 193.046875 194.226562 192.796875 194.226562 C 192.449219 194.226562 192.136719 194.167969 191.859375 194.046875 C 191.582031 193.925781 191.351562 193.757812 191.160156 193.539062 C 190.964844 193.320312 190.820312 193.054688 190.71875 192.742188 C 190.621094 192.433594 190.570312 192.089844 190.570312 191.707031 C 190.570312 191.21875 190.648438 190.75 190.804688 190.304688 C 190.960938 189.859375 191.183594 189.46875 191.464844 189.128906 C 191.746094 188.789062 192.082031 188.519531 192.46875 188.316406 C 192.859375 188.113281 193.28125 188.011719 193.738281 188.011719 C 194.140625 188.011719 194.480469 188.085938 194.761719 188.226562 C 195.042969 188.367188 195.292969 188.578125 195.511719 188.859375 L 195.046875 189.414062 C 195.011719 189.449219 194.972656 189.484375 194.925781 189.511719 C 194.878906 189.539062 194.828125 189.554688 194.773438 189.554688 C 194.710938 189.554688 194.648438 189.535156 194.59375 189.492188 C 194.539062 189.453125 194.472656 189.410156 194.402344 189.363281 C 194.328125 189.316406 194.238281 189.269531 194.128906 189.230469 C 194.023438 189.1875 193.882812 189.167969 193.710938 189.167969 C 193.488281 189.167969 193.273438 189.226562 193.070312 189.351562 C 192.863281 189.472656 192.683594 189.644531 192.53125 189.867188 C 192.375 190.089844 192.253906 190.359375 192.160156 190.671875 C 192.066406 190.984375 192.023438 191.332031 192.023438 191.714844 C 192.023438 192.15625 192.121094 192.5 192.316406 192.742188 C 192.511719 192.980469 192.777344 193.101562 193.113281 193.101562 C 193.335938 193.101562 193.519531 193.070312 193.667969 193.007812 C 193.8125 192.941406 193.9375 192.871094 194.039062 192.792969 C 194.144531 192.71875 194.234375 192.648438 194.3125 192.582031 C 194.394531 192.515625 194.480469 192.484375 194.574219 192.484375 C 194.621094 192.484375 194.667969 192.496094 194.714844 192.523438 C 194.757812 192.550781 194.800781 192.582031 194.832031 192.621094 Z M 196.261719 192.90625 C 196.261719 192.882812 196.261719 192.847656 196.261719 192.8125 C 196.261719 192.773438 196.265625 192.71875 196.269531 192.648438 C 196.277344 192.574219 196.289062 192.480469 196.300781 192.359375 C 196.316406 192.238281 196.332031 192.085938 196.355469 191.894531 L 196.691406 189.191406 L 196.121094 189.191406 C 196.054688 189.191406 196 189.167969 195.960938 189.128906 C 195.917969 189.089844 195.898438 189.027344 195.898438 188.941406 C 195.898438 188.941406 195.898438 188.933594 195.902344 188.917969 C 195.902344 188.910156 195.90625 188.882812 195.910156 188.839844 C 195.914062 188.800781 195.921875 188.738281 195.929688 188.65625 C 195.941406 188.574219 195.953125 188.457031 195.96875 188.308594 L 196.886719 188.148438 L 197.367188 186.503906 C 197.390625 186.425781 197.433594 186.363281 197.492188 186.320312 C 197.546875 186.277344 197.617188 186.253906 197.699219 186.253906 L 198.472656 186.253906 L 198.238281 188.15625 L 199.699219 188.15625 L 199.574219 189.191406 L 198.109375 189.191406 L 197.785156 191.820312 C 197.765625 191.980469 197.75 192.109375 197.742188 192.203125 C 197.734375 192.296875 197.726562 192.371094 197.71875 192.421875 C 197.710938 192.476562 197.707031 192.515625 197.707031 192.535156 C 197.707031 192.554688 197.703125 192.570312 197.703125 192.578125 C 197.703125 192.726562 197.742188 192.84375 197.8125 192.929688 C 197.886719 193.015625 197.988281 193.0625 198.121094 193.0625 C 198.203125 193.0625 198.273438 193.050781 198.332031 193.03125 C 198.390625 193.007812 198.441406 192.984375 198.484375 192.960938 C 198.53125 192.9375 198.566406 192.914062 198.601562 192.894531 C 198.632812 192.871094 198.667969 192.859375 198.699219 192.859375 C 198.742188 192.859375 198.777344 192.871094 198.800781 192.894531 C 198.824219 192.914062 198.847656 192.949219 198.871094 192.988281 L 199.179688 193.695312 C 198.964844 193.875 198.726562 194.007812 198.460938 194.097656 C 198.199219 194.1875 197.9375 194.234375 197.667969 194.234375 C 197.242188 194.234375 196.902344 194.117188 196.65625 193.886719 C 196.40625 193.65625 196.273438 193.328125 196.261719 192.90625 Z M 196.261719 192.90625 "/>
</g>
<g clip-path="url(#clip3)" clip-rule="nonzero">
<path style=" stroke:none;fill-rule:nonzero;fill:rgb(100%,100%,100%);fill-opacity:1;" d="M 159.378906 86.839844 C 177.441406 86.839844 193.839844 93.964844 205.917969 105.554688 L 201.988281 105.554688 C 190.617188 95.5625 175.707031 89.5 159.378906 89.5 C 143.050781 89.5 128.140625 95.5625 116.773438 105.554688 L 112.84375 105.554688 C 124.921875 93.964844 141.316406 86.839844 159.378906 86.839844 Z M 226.59375 154.054688 C 226.59375 167.679688 222.539062 180.355469 215.574219 190.945312 L 215.574219 185.855469 C 220.894531 176.46875 223.933594 165.617188 223.933594 154.054688 C 223.933594 142.492188 220.894531 131.640625 215.574219 122.253906 L 215.574219 117.160156 C 222.539062 127.753906 226.59375 140.429688 226.59375 154.054688 Z M 159.378906 221.269531 C 141.316406 221.269531 124.921875 214.144531 112.84375 202.550781 L 116.773438 202.550781 C 128.140625 212.546875 143.050781 218.609375 159.378906 218.609375 C 175.707031 218.609375 190.621094 212.546875 201.988281 202.550781 L 205.917969 202.550781 C 193.839844 214.144531 177.441406 221.269531 159.378906 221.269531 Z M 159.378906 221.269531 "/>
</g>
<g clip-path="url(#clip4)" clip-rule="nonzero">
<path style="fill:none;stroke-width:1;stroke-linecap:butt;stroke-linejoin:miter;stroke:rgb(100%,100%,100%);stroke-opacity:1;stroke-miterlimit:4;" d="M 207.891601 -0.00139067 C 241.106888 -0.00139067 271.262116 13.100833 293.472685 34.413497 L 286.246348 34.413497 C 265.335946 16.038777 237.917531 4.890394 207.891601 4.890394 C 177.865671 4.890394 150.447256 16.038777 129.544037 34.413497 L 122.317701 34.413497 C 144.528269 13.100833 174.676314 -0.00139067 207.891601 -0.00139067 Z M 331.493557 123.600565 C 331.493557 148.655695 324.037357 171.965299 311.229646 191.439054 L 311.229646 182.079296 C 321.013215 164.817978 326.601773 144.862946 326.601773 123.600565 C 326.601773 102.338184 321.013215 82.383152 311.229646 65.121834 L 311.229646 55.754894 C 324.037357 75.235832 331.493557 98.545435 331.493557 123.600565 Z M 207.891601 247.202521 C 174.676314 247.202521 144.528269 234.100297 122.317701 212.78045 L 129.544037 212.78045 C 150.447256 231.162353 177.865671 242.310737 207.891601 242.310737 C 237.917531 242.310737 265.343129 231.162353 286.246348 212.78045 L 293.472685 212.78045 C 271.262116 234.100297 241.106888 247.202521 207.891601 247.202521 Z M 207.891601 247.202521 " transform="matrix(0.543801,0,0,0.543801,46.327285,86.8406)"/>
</g>
</g>
</svg>
