<svg xmlns="http://www.w3.org/2000/svg" version="1.1" xmlns:xlink="http://www.w3.org/1999/xlink" xmlns:svgjs="http://svgjs.dev/svgjs" width="1000" height="1000" viewBox="0 0 1000 1000"><rect width="1000" height="1000" fill="#000000"></rect><g transform="matrix(0.7,0,0,0.7,149.57575757575756,282.1265587044535)"><svg viewBox="0 0 396 247" data-background-color="#5e1914" preserveAspectRatio="xMidYMid meet" height="623" width="1000" xmlns="http://www.w3.org/2000/svg" xmlns:xlink="http://www.w3.org/1999/xlink"><g id="tight-bounds" transform="matrix(1,0,0,1,0.2400000000000091,-0.09999999999999432)"><svg viewBox="0 0 395.52 247.2" height="247.2" width="395.52"><g><svg></svg></g><g><svg viewBox="0 0 395.52 247.2" height="247.2" width="395.52"><g transform="matrix(1,0,0,1,113.46683159271599,47.215199999999996)"><svg viewBox="0 0 168.586336814568 152.7696" height="152.7696" width="168.586336814568"><g><svg viewBox="0 0 168.586336814568 152.7696" height="152.7696" width="168.586336814568"><g><svg viewBox="0 0 236.06929933038808 213.92132430430297" height="152.7696" width="168.586336814568"><g><svg viewBox="0 0 236.06929933038808 213.92132430430297" height="213.92132430430297" width="236.06929933038808"><g id="textblocktransform"><svg viewBox="0 0 236.06929933038808 213.92132430430297" height="213.92132430430297" width="236.06929933038808" id="textblock"><g><svg viewBox="0 0 236.06929933038808 151.825483872" height="151.825483872" width="236.06929933038808"><g transform="matrix(1,0,0,1,0,0)"><svg width="236.06929933038808" viewBox="-15.300000190734863 -36.25 88.54000091552734 56.95000076293945" height="151.825483872" data-palette-color="#ffffff"><path d="M44-31.4L44-31.4 42.2-31.5 41.6-31.5Q40.75-28.9 37.88-26.68 35-24.45 32-24.45L32-24.45Q30.35-24.45 30.35-25.75L30.35-25.75Q30.35-27.6 33.4-29.98 36.45-32.35 40.7-32.75L40.7-32.75 40.7-32.95Q40.7-35.5 36.35-35.5L36.35-35.5Q29.65-35.5 24.4-27.6L24.4-27.6Q21.95-23.85 19.8-19.9L19.8-19.9Q13.1-7.35 9.4-2.55L9.4-2.55Q11.05-2.55 11.95-2.5L11.95-2.5 20.15-2.25Q23.2-2.25 23.73-2.18 24.25-2.1 24.25-1.9L24.25-1.9Q24.25-0.45 21.85-0.3L21.85-0.3Q15.25-0.5 7.8-0.6L7.8-0.6Q-0.45 8.85-11.55 8.85L-11.55 8.85Q-13.25 8.85-14.28 8.03-15.3 7.2-15.3 5.9-15.3 4.6-14.08 3.25-12.85 1.9-10.38 0.6-7.9-0.7-3.35-1.58 1.2-2.45 7.15-2.55L7.15-2.55Q11.1-7.9 15.9-17.1L15.9-17.1Q17.65-20.55 20.05-24.25 22.45-27.95 24.73-30.48 27-33 30.18-34.63 33.35-36.25 36.95-36.25L36.95-36.25Q41.9-36.25 41.9-33L41.9-33 41.9-32.85Q43.2-32.85 44.15-32.65L44.15-32.65Q44.45-32.55 44.45-31.98 44.45-31.4 44-31.4ZM-13.2 3.7L-13.2 3.7Q-14.35 4.75-14.35 5.73-14.35 6.7-13.4 7.3-12.45 7.9-10.75 7.9L-10.75 7.9Q-1.55 7.9 5.6-0.6L5.6-0.6Q-8.75-0.45-13.2 3.7ZM31.85-26.05L31.85-26.05Q31.85-25.25 32.85-25.25L32.85-25.25Q34.65-25.25 37.05-27.25 39.45-29.25 40.35-31.4L40.35-31.4Q36.7-30.95 34.27-29.18 31.85-27.4 31.85-26.05ZM31.25-0.5L31.25-0.5Q31.25-1.05 32.07-2.35 32.9-3.65 33.17-4 33.45-4.35 34-5.1L34-5.1Q28.05 0.3 25.8 0.3L25.8 0.3Q24.55 0.3 24.55-0.75L24.55-0.75Q24.55-2.25 29.6-9.2L29.6-9.2Q29.85-9.6 30.25-9.6L30.25-9.6Q31.4-9.25 31.4-9.1 31.4-8.95 31.1-8.5L31.1-8.5Q26.8-2.7 26.8-1.98 26.8-1.25 27.3-1.25L27.3-1.25Q28.7-1.25 32.27-4.48 35.85-7.7 37.45-9.8L37.45-9.8Q37.65-10.15 38.1-10.15L38.1-10.15Q39.1-9.95 39.1-9.75L39.1-9.75Q38.55-8.95 37.6-7.65 36.65-6.35 36.05-5.53 35.45-4.7 34.8-3.75L34.8-3.75Q33.55-2.05 33.3-1.25L33.3-1.25Q33.3-0.75 34.12-0.75 34.95-0.75 37.05-1.73 39.15-2.7 40.75-3.7L40.75-3.7 42.35-4.7Q42.4-4.6 42.4-4.3 42.4-4 41.95-3.8L41.95-3.8Q35.2 0.8 32.55 0.8L32.55 0.8Q31.25 0.8 31.25-0.5ZM40.8-1.3L40.8-1.3Q43.05-1.25 43.95 0.05L43.95 0.05Q48.65-2.4 52.3-4.75L52.3-4.75Q52.35-4.6 52.35-4.3 52.35-4 51.9-3.8L51.9-3.8Q50.15-2.6 48.3-1.5 46.45-0.4 44.3 0.8L44.3 0.8Q44.45 1.3 44.45 2L44.45 2Q44.45 4.65 42.12 8.58 39.8 12.5 36.67 15.38 33.55 18.25 31.45 18.25L31.45 18.25Q30.5 18.25 30.5 16.75 30.5 15.25 35.75 5.1L35.75 5.1Q34.65 5.5 34 5.5L34 5.5Q32.2 5.5 32.2 4.45L32.2 4.45Q32.2 3.2 34.37 1.4 36.55-0.4 39-1.05L39-1.05Q44.6-11.2 49.85-18.48 55.1-25.75 57.84-25.75L57.84-25.75Q58.95-25.75 58.95-24.65L58.95-24.65Q58.95-23 57.72-20.7 56.5-18.4 54.7-16.18 52.9-13.95 50.67-11.6 48.45-9.25 46.65-7.58 44.85-5.9 43.45-4.63 42.05-3.35 42-3.3L42-3.3Q41.75-2.9 41.32-2.18 40.9-1.45 40.8-1.3ZM32.59 15.85L32.59 15.85Q32.59 16.4 32.95 16.4L32.95 16.4Q34.34 16.4 36.77 13.83 39.2 11.25 41.12 7.8 43.05 4.35 43.05 2.1L43.05 2.1Q43.05 1.7 43 1.5L43 1.5Q40.2 3.1 37.65 4.3L37.65 4.3Q32.59 13.55 32.59 15.85ZM57.15-23.4L57.15-23.4Q57.15-24 56.6-24L56.6-24Q55.65-23.95 51.75-18.43 47.85-12.9 43.2-5.3L43.2-5.3Q46.3-8.05 49.95-12.05L49.95-12.05Q57.15-19.85 57.15-23.4ZM35.55 1.33Q34.25 2.3 34.25 3 34.25 3.7 35.55 3.7L35.55 3.7Q35.75 3.7 36.55 3.5L36.55 3.5 38.5-0.1Q36.85 0.35 35.55 1.33ZM38.5 2.7L38.5 2.7Q39.75 2.2 42.75 0.65L42.75 0.65Q42.1-0.4 40.4-0.4L40.4-0.4 40.3-0.4Q39.95 0.2 39.35 1.25 38.75 2.3 38.5 2.7ZM50.59-1.3L50.59-1.3Q52.84-1.25 53.74 0.05L53.74 0.05Q58.44-2.4 62.09-4.75L62.09-4.75Q62.14-4.6 62.14-4.3 62.14-4 61.69-3.8L61.69-3.8Q59.94-2.6 58.09-1.5 56.24-0.4 54.09 0.8L54.09 0.8Q54.24 1.3 54.24 2L54.24 2Q54.24 4.65 51.92 8.58 49.59 12.5 46.47 15.38 43.34 18.25 41.24 18.25L41.24 18.25Q40.29 18.25 40.29 16.75 40.29 15.25 45.54 5.1L45.54 5.1Q44.44 5.5 43.79 5.5L43.79 5.5Q41.99 5.5 41.99 4.45L41.99 4.45Q41.99 3.2 44.17 1.4 46.34-0.4 48.79-1.05L48.79-1.05Q54.39-11.2 59.64-18.48 64.89-25.75 67.64-25.75L67.64-25.75Q68.74-25.75 68.74-24.65L68.74-24.65Q68.74-23 67.52-20.7 66.29-18.4 64.49-16.18 62.69-13.95 60.47-11.6 58.24-9.25 56.44-7.58 54.64-5.9 53.24-4.63 51.84-3.35 51.79-3.3L51.79-3.3Q51.54-2.9 51.12-2.18 50.69-1.45 50.59-1.3ZM42.39 15.85L42.39 15.85Q42.39 16.4 42.74 16.4L42.74 16.4Q44.14 16.4 46.57 13.83 48.99 11.25 50.92 7.8 52.84 4.35 52.84 2.1L52.84 2.1Q52.84 1.7 52.79 1.5L52.79 1.5Q49.99 3.1 47.44 4.3L47.44 4.3Q42.39 13.55 42.39 15.85ZM66.94-23.4L66.94-23.4Q66.94-24 66.39-24L66.39-24Q65.44-23.95 61.54-18.43 57.64-12.9 52.99-5.3L52.99-5.3Q56.09-8.05 59.74-12.05L59.74-12.05Q66.94-19.85 66.94-23.4ZM45.34 1.33Q44.04 2.3 44.04 3 44.04 3.7 45.34 3.7L45.34 3.7Q45.54 3.7 46.34 3.5L46.34 3.5 48.29-0.1Q46.64 0.35 45.34 1.33ZM48.29 2.7L48.29 2.7Q49.54 2.2 52.54 0.65L52.54 0.65Q51.89-0.4 50.19-0.4L50.19-0.4 50.09-0.4Q49.74 0.2 49.14 1.25 48.54 2.3 48.29 2.7ZM73.24-9.35Q73.24-9.3 72.12-7.58 70.99-5.85 70.37-4.95 69.74-4.05 65.14 3.45L65.14 3.45Q65.54 3.4 66.44 3.4L66.44 3.4Q68.84 3.4 68.84 4.65L68.84 4.65Q68.84 5.35 67.94 6.3 67.04 7.25 66.54 7.25 66.04 7.25 66.04 6.9L66.04 6.9Q66.04 6.7 66.59 6.28 67.14 5.85 67.14 5.28 67.14 4.7 66.17 4.7 65.19 4.7 64.29 4.85L64.29 4.85Q59.74 12.3 56.44 16.5 53.14 20.7 50.79 20.7L50.79 20.7Q49.09 20.7 49.09 18.95L49.09 18.95Q49.09 15.95 53.62 10.63 58.14 5.3 63.44 3.8L63.44 3.8 68.24-4.5Q66.14-2.6 63.92-1.15 61.69 0.3 60.54 0.3 59.39 0.3 59.39-0.75L59.39-0.75Q59.39-2.35 64.64-9.6L64.64-9.6Q64.89-10 65.29-10L65.29-10Q66.44-9.65 66.44-9.5 66.44-9.35 66.14-8.9L66.14-8.9Q61.64-2.8 61.64-1.85L61.64-1.85Q61.64-1.25 62.32-1.25 62.99-1.25 65.12-2.85 67.24-4.45 68.74-6.1L68.74-6.1 71.54-9.5Q71.84-9.85 72.29-9.85L72.29-9.85Q73.24-9.7 73.24-9.35L73.24-9.35ZM53.94 11.68Q52.49 13.65 51.64 15.43 50.79 17.2 50.79 18.23 50.79 19.25 51.59 19.25L51.59 19.25Q54.09 19.25 62.54 5.25L62.54 5.25Q60.04 6.05 57.72 7.88 55.39 9.7 53.94 11.68Z" opacity="1" transform="matrix(1,0,0,1,0,0)" fill="#ffffff" class="undefined-text-0" data-fill-palette-color="primary" id="text-0"></path></svg></g></svg></g><g transform="matrix(1,0,0,1,0,187.66783680256628)"><svg viewBox="0 0 236.06929933038808 26.253487501736668" height="26.253487501736668" width="236.06929933038808"><g transform="matrix(1,0,0,1,0,0)"><svg width="236.06929933038808" viewBox="-0.25 -37.150001525878906 389.5299987792969 43.33000183105469" height="26.253487501736668" data-palette-color="#ffffff"><path d="M25.3-32.38L23.38-29.65Q23.03-29.15 22.68-28.91 22.33-28.68 21.83-28.68L21.83-28.68Q21.33-28.68 20.8-29.08 20.28-29.48 19.55-29.96 18.82-30.45 17.84-30.85 16.85-31.25 15.45-31.25L15.45-31.25Q14.08-31.25 13.03-30.85 11.98-30.45 11.26-29.75 10.55-29.05 10.19-28.1 9.83-27.15 9.83-26.05L9.83-26.05Q9.83-24.9 10.41-24.14 11-23.38 11.95-22.8 12.9-22.23 14.13-21.78 15.35-21.33 16.61-20.83 17.88-20.33 19.1-19.68 20.33-19.03 21.28-18.07 22.23-17.13 22.81-15.79 23.4-14.45 23.4-12.55L23.4-12.55Q23.4-9.9 22.49-7.55 21.58-5.2 19.86-3.44 18.15-1.68 15.71-0.64 13.28 0.4 10.23 0.4L10.23 0.4Q8.65 0.4 7.13 0.06 5.6-0.28 4.25-0.9 2.9-1.53 1.75-2.4 0.6-3.28-0.25-4.35L-0.25-4.35 2.05-7.45Q2.33-7.8 2.75-8.03 3.18-8.25 3.6-8.25L3.6-8.25Q4-8.25 4.39-8 4.78-7.75 5.24-7.39 5.7-7.03 6.24-6.59 6.78-6.15 7.48-5.79 8.18-5.43 9.05-5.18 9.93-4.93 11.08-4.93L11.08-4.93Q13.9-4.93 15.5-6.53 17.1-8.13 17.1-10.95L17.1-10.95Q17.1-12.2 16.53-13 15.95-13.8 15-14.35 14.05-14.9 12.85-15.31 11.65-15.73 10.39-16.19 9.13-16.65 7.93-17.26 6.73-17.88 5.78-18.84 4.83-19.8 4.25-21.2 3.68-22.6 3.68-24.65L3.68-24.65Q3.68-26.98 4.54-29.13 5.4-31.28 7-32.91 8.6-34.55 10.89-35.54 13.18-36.52 16.05-36.52L16.05-36.52Q17.53-36.52 18.89-36.23 20.25-35.93 21.43-35.38 22.6-34.83 23.59-34.06 24.58-33.3 25.3-32.38L25.3-32.38ZM36.22-4.38L36.22-4.38Q37.77-4.38 39.02-5.26 40.27-6.15 41.16-7.64 42.05-9.13 42.52-11.1 43-13.08 43-15.25L43-15.25Q43-18.38 41.94-19.85 40.87-21.33 38.72-21.33L38.72-21.33Q37.17-21.33 35.92-20.45 34.67-19.58 33.8-18.07 32.92-16.57 32.45-14.6 31.97-12.63 31.97-10.43L31.97-10.43Q31.97-7.3 33.02-5.84 34.07-4.38 36.22-4.38ZM35.67 0.38L35.67 0.38Q33.55 0.38 31.73-0.34 29.92-1.05 28.61-2.43 27.3-3.8 26.55-5.8 25.8-7.8 25.8-10.38L25.8-10.38Q25.8-13.7 26.86-16.57 27.92-19.45 29.76-21.55 31.6-23.65 34.05-24.85 36.5-26.05 39.27-26.05L39.27-26.05Q41.4-26.05 43.21-25.34 45.02-24.63 46.35-23.25 47.67-21.88 48.42-19.88 49.17-17.88 49.17-15.3L49.17-15.3Q49.17-12 48.1-9.14 47.02-6.28 45.19-4.16 43.35-2.05 40.9-0.84 38.45 0.38 35.67 0.38ZM66.52-21.03L61.02-21.03 58.59-1.05 57.32 3.65Q56.97 4.88 56.23 5.53 55.49 6.18 54.14 6.18L54.14 6.18 51.67 6.18 54.95-21.03 52.97-21.38Q52.42-21.48 52.07-21.79 51.72-22.1 51.72-22.68L51.72-22.68Q51.72-22.7 51.73-22.78 51.74-22.85 51.77-23.11 51.8-23.38 51.86-23.91 51.92-24.45 52.05-25.43L52.05-25.43 55.49-25.43 55.72-27.33Q55.99-29.53 56.88-31.28 57.77-33.02 59.13-34.25 60.49-35.48 62.27-36.13 64.05-36.77 66.09-36.77L66.09-36.77Q67.69-36.77 69.05-36.3L69.05-36.3 68.5-33.1Q68.44-32.83 68.26-32.66 68.07-32.5 67.8-32.43 67.52-32.35 67.18-32.33 66.84-32.3 66.5-32.3L66.5-32.3Q65.5-32.3 64.66-32.02 63.82-31.75 63.18-31.14 62.55-30.53 62.13-29.54 61.72-28.55 61.55-27.13L61.55-27.13 61.34-25.43 67.09-25.43 66.52-21.03ZM69.79-5.23L69.79-5.23Q69.79-5.4 69.79-5.64 69.79-5.88 69.83-6.34 69.87-6.8 69.96-7.56 70.04-8.33 70.19-9.53L70.19-9.53 71.62-21.03 69.19-21.03Q68.77-21.03 68.51-21.29 68.24-21.55 68.24-22.08L68.24-22.08Q68.24-22.1 68.26-22.18 68.27-22.25 68.29-22.51 68.32-22.78 68.38-23.3 68.44-23.83 68.54-24.78L68.54-24.78 72.44-25.45 74.49-32.45Q74.64-32.95 75.01-33.23 75.37-33.5 75.89-33.5L75.89-33.5 79.19-33.5 78.19-25.43 84.39-25.43 83.87-21.03 77.64-21.03 76.27-9.85Q76.14-8.83 76.08-8.22 76.02-7.63 75.98-7.29 75.94-6.95 75.93-6.81 75.92-6.68 75.92-6.63L75.92-6.63Q75.92-5.68 76.38-5.13 76.84-4.58 77.69-4.58L77.69-4.58Q78.22-4.58 78.59-4.71 78.97-4.85 79.24-5 79.52-5.15 79.73-5.29 79.94-5.43 80.14-5.43L80.14-5.43Q80.42-5.43 80.58-5.29 80.74-5.15 80.87-4.88L80.87-4.88 82.19-1.88Q80.82-0.75 79.14-0.18 77.47 0.4 75.77 0.4L75.77 0.4Q73.04 0.4 71.46-1.07 69.87-2.55 69.79-5.23ZM90.12 0L85.77-25.65 90.44-25.65Q91.09-25.65 91.52-25.33 91.94-25 91.99-24.5L91.99-24.5 93.49-10.8Q93.62-9.68 93.63-8.63 93.64-7.58 93.69-6.53L93.69-6.53Q94.06-7.58 94.48-8.63 94.89-9.68 95.34-10.8L95.34-10.8 100.92-24.55Q101.12-25.05 101.56-25.38 102.02-25.7 102.56-25.7L102.56-25.7 105.22-25.7Q105.87-25.7 106.24-25.38 106.62-25.05 106.69-24.55L106.69-24.55 108.84-10.8Q109.02-9.68 109.14-8.63 109.27-7.58 109.37-6.53L109.37-6.53Q109.64-7.58 109.95-8.63 110.27-9.68 110.69-10.8L110.69-10.8 115.67-24.5Q115.84-25 116.29-25.33 116.74-25.65 117.31-25.65L117.31-25.65 121.81-25.65 111.24 0 106.47 0Q105.69 0 105.52-1.1L105.52-1.1 103.06-15.93Q102.92-16.93 102.84-17.85L102.84-17.85Q102.67-17.35 102.49-16.86 102.31-16.38 102.12-15.88L102.12-15.88 96.02-1.1Q95.56 0 94.69 0L94.69 0 90.12 0ZM145.06-24.88L141.96 0 138.71 0Q137.59 0 137.14-0.53 136.69-1.05 136.69-1.85L136.69-1.85 136.89-5.35Q135.19-2.7 133.06-1.16 130.94 0.38 128.39 0.38L128.39 0.38Q126.94 0.38 125.68-0.2 124.41-0.78 123.48-1.91 122.54-3.05 122-4.76 121.46-6.48 121.46-8.78L121.46-8.78Q121.46-11.08 122.04-13.25 122.61-15.43 123.68-17.34 124.74-19.25 126.24-20.85 127.74-22.45 129.6-23.6 131.46-24.75 133.63-25.39 135.79-26.03 138.19-26.03L138.19-26.03Q139.91-26.03 141.65-25.78 143.39-25.53 145.06-24.88L145.06-24.88ZM130.81-4.67L130.81-4.67Q131.84-4.67 132.83-5.38 133.81-6.08 134.69-7.31 135.56-8.55 136.31-10.23 137.06-11.9 137.61-13.83L137.61-13.83 138.59-21.58Q137.91-21.65 137.34-21.65L137.34-21.65Q135.26-21.65 133.49-20.7 131.71-19.75 130.41-18.14 129.11-16.53 128.38-14.39 127.64-12.25 127.64-9.88L127.64-9.88Q127.64-7.18 128.49-5.93 129.34-4.67 130.81-4.67ZM153.74 0L147.69 0 150.81-25.68 153.94-25.68Q154.84-25.68 155.41-25.28 155.99-24.88 155.99-24L155.99-24Q155.99-24 155.99-23.91 155.99-23.83 155.96-23.4 155.94-22.98 155.91-22.06 155.89-21.15 155.81-19.5L155.81-19.5Q157.39-22.53 159.26-24.18 161.14-25.83 163.16-25.83L163.16-25.83Q164.19-25.83 165.24-25.38L165.24-25.38 164.11-19.48Q162.86-20 161.74-20L161.74-20Q159.51-20 157.84-17.88 156.16-15.75 155.09-11.23L155.09-11.23 153.74 0ZM186.51-19.7L186.51-19.7Q186.51-17.98 185.82-16.55 185.13-15.13 183.36-14 181.58-12.88 178.55-12.06 175.51-11.25 170.81-10.78L170.81-10.78 170.81-10.45Q170.81-4.4 175.93-4.4L175.93-4.4Q177.03-4.4 177.88-4.61 178.73-4.83 179.37-5.13 180.01-5.43 180.52-5.8 181.03-6.18 181.47-6.48 181.91-6.78 182.33-6.99 182.76-7.2 183.26-7.2L183.26-7.2Q183.56-7.2 183.86-7.06 184.16-6.93 184.36-6.65L184.36-6.65 185.93-4.75Q184.61-3.43 183.33-2.45 182.06-1.48 180.73-0.85 179.41-0.23 177.93 0.08 176.46 0.38 174.71 0.38L174.71 0.38Q172.46 0.38 170.63-0.39 168.81-1.15 167.51-2.54 166.21-3.93 165.5-5.89 164.78-7.85 164.78-10.28L164.78-10.28Q164.78-12.3 165.22-14.25 165.66-16.2 166.48-17.95 167.31-19.7 168.51-21.18 169.71-22.65 171.22-23.73 172.73-24.8 174.55-25.4 176.36-26 178.43-26L178.43-26Q180.46-26 181.97-25.43 183.48-24.85 184.5-23.94 185.51-23.03 186.01-21.9 186.51-20.78 186.51-19.7ZM178.08-21.7L178.08-21.7Q176.83-21.7 175.76-21.19 174.68-20.68 173.82-19.75 172.96-18.82 172.32-17.54 171.68-16.25 171.31-14.73L171.31-14.73Q174.41-15.15 176.3-15.65 178.18-16.15 179.22-16.75 180.26-17.35 180.6-18.03 180.93-18.7 180.93-19.48L180.93-19.48Q180.93-19.85 180.77-20.25 180.61-20.65 180.27-20.96 179.93-21.28 179.4-21.49 178.86-21.7 178.08-21.7ZM219.15-36.15L227.78 0 222.75 0Q221.9 0 221.4-0.4 220.9-0.8 220.78-1.48L220.78-1.48 219.28-9.03 205.8-9.03 202.45-1.48Q202.18-0.9 201.55-0.45 200.93 0 200.15 0L200.15 0 195.05 0 212.53-36.15 219.15-36.15ZM213.33-25.95L207.83-13.6 218.35-13.6 215.9-25.98Q215.7-26.88 215.5-27.88 215.3-28.88 215.13-30.13L215.13-30.13Q214.65-28.88 214.19-27.81 213.73-26.75 213.33-25.95L213.33-25.95ZM236.28 0L230.23 0 233.35-25.68 236.48-25.68Q237.38-25.68 237.95-25.28 238.53-24.88 238.53-24L238.53-24Q238.53-24 238.53-23.91 238.53-23.83 238.5-23.4 238.48-22.98 238.45-22.06 238.43-21.15 238.35-19.5L238.35-19.5Q239.93-22.53 241.8-24.18 243.68-25.83 245.7-25.83L245.7-25.83Q246.73-25.83 247.78-25.38L247.78-25.38 246.65-19.48Q245.4-20 244.28-20L244.28-20Q242.05-20 240.38-17.88 238.7-15.75 237.63-11.23L237.63-11.23 236.28 0ZM267.05-4.55L267.05-4.55Q265.77-3.15 264.61-2.2 263.45-1.25 262.25-0.68 261.05-0.1 259.72 0.14 258.4 0.38 256.82 0.38L256.82 0.38Q254.6 0.38 252.84-0.39 251.07-1.15 249.85-2.55 248.62-3.95 247.99-5.93 247.35-7.9 247.35-10.33L247.35-10.33Q247.35-13.45 248.35-16.29 249.35-19.13 251.15-21.29 252.95-23.45 255.42-24.74 257.9-26.03 260.82-26.03L260.82-26.03Q263.37-26.03 265.16-25.13 266.95-24.23 268.35-22.43L268.35-22.43 266.37-20.08Q266.15-19.85 265.86-19.66 265.57-19.48 265.22-19.48L265.22-19.48Q264.8-19.48 264.45-19.74 264.1-20 263.64-20.3 263.17-20.6 262.49-20.86 261.8-21.13 260.7-21.13L260.7-21.13Q259.27-21.13 257.97-20.35 256.67-19.58 255.69-18.15 254.7-16.73 254.11-14.73 253.52-12.73 253.52-10.3L253.52-10.3Q253.52-7.48 254.77-5.94 256.02-4.4 258.15-4.4L258.15-4.4Q259.57-4.4 260.51-4.81 261.45-5.23 262.1-5.71 262.75-6.2 263.26-6.61 263.77-7.03 264.37-7.03L264.37-7.03Q264.67-7.03 264.96-6.86 265.25-6.7 265.47-6.45L265.47-6.45 267.05-4.55ZM275.55 0L269.37 0 273.9-37.15 280.05-37.15 278.12-21.28Q280-23.7 282.18-24.88 284.37-26.05 286.65-26.05L286.65-26.05Q288.1-26.05 289.27-25.54 290.45-25.03 291.27-24.04 292.1-23.05 292.55-21.61 293-20.18 293-18.3L293-18.3Q293-17.82 292.96-17.34 292.92-16.85 292.87-16.32L292.87-16.32 290.95 0 284.77 0 286.7-16.32Q286.75-16.78 286.78-17.18 286.82-17.57 286.82-17.93L286.82-17.93Q286.82-19.58 286.2-20.3 285.57-21.03 284.3-21.03L284.3-21.03Q283.35-21.03 282.32-20.49 281.3-19.95 280.35-18.96 279.4-17.98 278.57-16.57 277.75-15.18 277.17-13.45L277.17-13.45 275.55 0ZM299.92-25.65L306.02-25.65 302.94 0 296.84 0 299.92-25.65ZM307.57-33.13L307.57-33.13Q307.57-32.33 307.23-31.63 306.89-30.93 306.36-30.4 305.82-29.88 305.12-29.56 304.42-29.25 303.67-29.25L303.67-29.25Q302.94-29.25 302.26-29.56 301.57-29.88 301.04-30.4 300.52-30.93 300.21-31.63 299.89-32.33 299.89-33.13L299.89-33.13Q299.89-33.93 300.22-34.65 300.54-35.38 301.07-35.91 301.59-36.45 302.28-36.76 302.97-37.08 303.69-37.08L303.69-37.08Q304.44-37.08 305.14-36.76 305.84-36.45 306.38-35.93 306.92-35.4 307.24-34.68 307.57-33.95 307.57-33.13ZM311.54-5.23L311.54-5.23Q311.54-5.4 311.54-5.64 311.54-5.88 311.58-6.34 311.62-6.8 311.7-7.56 311.79-8.33 311.94-9.53L311.94-9.53 313.37-21.03 310.94-21.03Q310.52-21.03 310.25-21.29 309.99-21.55 309.99-22.08L309.99-22.08Q309.99-22.1 310-22.18 310.02-22.25 310.04-22.51 310.07-22.78 310.13-23.3 310.19-23.83 310.29-24.78L310.29-24.78 314.19-25.45 316.24-32.45Q316.39-32.95 316.75-33.23 317.12-33.5 317.64-33.5L317.64-33.5 320.94-33.5 319.94-25.43 326.14-25.43 325.62-21.03 319.39-21.03 318.02-9.85Q317.89-8.83 317.83-8.22 317.77-7.63 317.73-7.29 317.69-6.95 317.68-6.81 317.67-6.68 317.67-6.63L317.67-6.63Q317.67-5.68 318.13-5.13 318.59-4.58 319.44-4.58L319.44-4.58Q319.97-4.58 320.34-4.71 320.72-4.85 320.99-5 321.27-5.15 321.48-5.29 321.69-5.43 321.89-5.43L321.89-5.43Q322.17-5.43 322.33-5.29 322.49-5.15 322.62-4.88L322.62-4.88 323.94-1.88Q322.57-0.75 320.89-0.18 319.22 0.4 317.52 0.4L317.52 0.4Q314.79 0.4 313.2-1.07 311.62-2.55 311.54-5.23ZM348.54-19.7L348.54-19.7Q348.54-17.98 347.85-16.55 347.16-15.13 345.39-14 343.61-12.88 340.58-12.06 337.54-11.25 332.84-10.78L332.84-10.78 332.84-10.45Q332.84-4.4 337.96-4.4L337.96-4.4Q339.06-4.4 339.91-4.61 340.76-4.83 341.4-5.13 342.04-5.43 342.55-5.8 343.06-6.18 343.5-6.48 343.94-6.78 344.36-6.99 344.79-7.2 345.29-7.2L345.29-7.2Q345.59-7.2 345.89-7.06 346.19-6.93 346.39-6.65L346.39-6.65 347.96-4.75Q346.64-3.43 345.36-2.45 344.09-1.48 342.76-0.85 341.44-0.23 339.96 0.08 338.49 0.38 336.74 0.38L336.74 0.38Q334.49 0.38 332.66-0.39 330.84-1.15 329.54-2.54 328.24-3.93 327.53-5.89 326.81-7.85 326.81-10.28L326.81-10.28Q326.81-12.3 327.25-14.25 327.69-16.2 328.51-17.95 329.34-19.7 330.54-21.18 331.74-22.65 333.25-23.73 334.76-24.8 336.58-25.4 338.39-26 340.46-26L340.46-26Q342.49-26 344-25.43 345.51-24.85 346.53-23.94 347.54-23.03 348.04-21.9 348.54-20.78 348.54-19.7ZM340.11-21.7L340.11-21.7Q338.86-21.7 337.79-21.19 336.71-20.68 335.85-19.75 334.99-18.82 334.35-17.54 333.71-16.25 333.34-14.73L333.34-14.73Q336.44-15.15 338.33-15.65 340.21-16.15 341.25-16.75 342.29-17.35 342.63-18.03 342.96-18.7 342.96-19.48L342.96-19.48Q342.96-19.85 342.8-20.25 342.64-20.65 342.3-20.96 341.96-21.28 341.43-21.49 340.89-21.7 340.11-21.7ZM370.19-4.55L370.19-4.55Q368.91-3.15 367.75-2.2 366.59-1.25 365.39-0.68 364.19-0.1 362.86 0.14 361.54 0.38 359.96 0.38L359.96 0.38Q357.74 0.38 355.97-0.39 354.21-1.15 352.99-2.55 351.76-3.95 351.12-5.93 350.49-7.9 350.49-10.33L350.49-10.33Q350.49-13.45 351.49-16.29 352.49-19.13 354.29-21.29 356.09-23.45 358.56-24.74 361.04-26.03 363.96-26.03L363.96-26.03Q366.51-26.03 368.3-25.13 370.09-24.23 371.49-22.43L371.49-22.43 369.51-20.08Q369.29-19.85 369-19.66 368.71-19.48 368.36-19.48L368.36-19.48Q367.94-19.48 367.59-19.74 367.24-20 366.77-20.3 366.31-20.6 365.62-20.86 364.94-21.13 363.84-21.13L363.84-21.13Q362.41-21.13 361.11-20.35 359.81-19.58 358.82-18.15 357.84-16.73 357.25-14.73 356.66-12.73 356.66-10.3L356.66-10.3Q356.66-7.48 357.91-5.94 359.16-4.4 361.29-4.4L361.29-4.4Q362.71-4.4 363.65-4.81 364.59-5.23 365.24-5.71 365.89-6.2 366.4-6.61 366.91-7.03 367.51-7.03L367.51-7.03Q367.81-7.03 368.1-6.86 368.39-6.7 368.61-6.45L368.61-6.45 370.19-4.55ZM374.68-5.23L374.68-5.23Q374.68-5.4 374.68-5.64 374.68-5.88 374.72-6.34 374.76-6.8 374.85-7.56 374.93-8.33 375.08-9.53L375.08-9.53 376.51-21.03 374.08-21.03Q373.66-21.03 373.4-21.29 373.13-21.55 373.13-22.08L373.13-22.08Q373.13-22.1 373.15-22.18 373.16-22.25 373.18-22.51 373.21-22.78 373.27-23.3 373.33-23.83 373.43-24.78L373.43-24.78 377.33-25.45 379.38-32.45Q379.53-32.95 379.9-33.23 380.26-33.5 380.78-33.5L380.78-33.5 384.08-33.5 383.08-25.43 389.28-25.43 388.76-21.03 382.53-21.03 381.16-9.85Q381.03-8.83 380.97-8.22 380.91-7.63 380.87-7.29 380.83-6.95 380.82-6.81 380.81-6.68 380.81-6.63L380.81-6.63Q380.81-5.68 381.27-5.13 381.73-4.58 382.58-4.58L382.58-4.58Q383.11-4.58 383.48-4.71 383.86-4.85 384.13-5 384.41-5.15 384.62-5.29 384.83-5.43 385.03-5.43L385.03-5.43Q385.31-5.43 385.47-5.29 385.63-5.15 385.76-4.88L385.76-4.88 387.08-1.88Q385.71-0.75 384.03-0.18 382.36 0.4 380.66 0.4L380.66 0.4Q377.93 0.4 376.35-1.07 374.76-2.55 374.68-5.23Z" opacity="1" transform="matrix(1,0,0,1,0,0)" fill="#ffffff" class="undefined-text-1" data-fill-palette-color="secondary" id="text-1"></path></svg></g></svg></g></svg></g></svg></g></svg></g></svg></g></svg></g><g><path d="M207.893 0c33.214 0 63.368 13.101 85.577 34.417l-7.225 0c-20.906-18.381-48.327-29.528-78.352-29.528-30.025 0-57.447 11.147-78.352 29.528l-7.225 0c22.209-21.316 52.363-34.417 85.577-34.417zM331.493 123.6c0 25.054-7.454 48.367-20.266 67.842v-9.366c9.789-17.261 15.377-37.215 15.377-58.476 0-21.26-5.589-41.215-15.377-58.476v-9.366c12.812 19.475 20.266 42.788 20.266 67.842zM207.893 247.2c-33.214 0-63.368-13.101-85.577-34.417h7.225c20.906 18.381 48.327 29.528 78.352 29.528 30.025 0 57.447-11.147 78.352-29.528h7.225c-22.209 21.316-52.363 34.417-85.577 34.417z" fill="#ffffff" stroke="transparent" data-fill-palette-color="tertiary"></path></g></svg></g><defs></defs></svg><rect width="395.52" height="247.2" fill="none" stroke="none" visibility="hidden"></rect></g></svg></g></svg>